# xmcd
#
# Track frame offsets: 
#        150
#        27295
#        50272
#        73829
#        98283
#        120507
#
# Disc length: 1971 seconds
#
# Revision: 0
# Processed by: cddbd v1.5.2PL0 Copyright (c) Steve Scherf et al.
# Submitted via: ExactAudioCopy v1.0b6
#
DISCID=4207b106
DTITLE=Les Ouvriers Du Christ - Kontra La Tè
DYEAR=1900
DGENRE=World
TTITLE0=Kontra La Tè
TTITLE1=Notre Père
TTITLE2=Mwen Santi Pa Kapab
TTITLE3=Sovè A Se Gadian Mwen
TTITLE4=Satan Antre Nan Leglis
TTITLE5=Acolad
EXTD=
EXTT0=
EXTT1=
EXTT2=
EXTT3=
EXTT4=
EXTT5=
PLAYORDER=
